<?xml version="1.0" encoding="UTF-8" standalone="no"?>
<!-- Created with Inkscape (http://www.inkscape.org/) -->

<svg
   version="1.1"
   id="svg2"
   width="283.46667"
   height="374.76001"
   viewBox="0 0 283.46667 374.76001"
   sodipodi:docname="fortaleza-logo.eps"
   xmlns:inkscape="http://www.inkscape.org/namespaces/inkscape"
   xmlns:sodipodi="http://sodipodi.sourceforge.net/DTD/sodipodi-0.dtd"
   xmlns="http://www.w3.org/2000/svg"
   xmlns:svg="http://www.w3.org/2000/svg">
  <defs
     id="defs6" />
  <sodipodi:namedview
     id="namedview4"
     pagecolor="#ffffff"
     bordercolor="#000000"
     borderopacity="0.25"
     inkscape:showpageshadow="2"
     inkscape:pageopacity="0.0"
     inkscape:pagecheckerboard="0"
     inkscape:deskcolor="#d1d1d1" />
  <g
     id="g8"
     inkscape:groupmode="layer"
     inkscape:label="ink_ext_XXXXXX"
     transform="matrix(1.3333333,0,0,-1.3333333,0,374.76)">
    <g
       id="g10"
       transform="scale(0.1)">
      <path
         d="m 1064.14,2810.72 c 5.73,-21.81 13.56,-42.97 20.39,-64.43 8.5,-26.65 17.05,-53.29 25.84,-79.84 3.51,-10.57 0.84,-10.49 14.05,-10.49 38.74,-0.01 77.49,-0.01 116.22,-0.01 11.36,0 22.7,0 35.4,0 -2.84,-5.93 -6.93,-7.5 -10.11,-9.84 -37.15,-27.14 -74.4,-54.17 -111.58,-81.25 -8.71,-6.33 -8.77,-6.39 -5.44,-16.81 14.14,-44.15 28.35,-88.27 42.52,-132.42 1.16,-3.58 2.21,-7.18 3.4,-11.03 -4.26,-0.43 -6.15,2.29 -8.44,3.96 -38.47,27.92 -76.96,55.87 -115.34,83.91 -9.81,7.19 -7.72,6.14 -16.41,-0.17 -37.25,-27.01 -74.429,-54.11 -111.702,-81.1 -3.543,-2.57 -6.731,-5.96 -11.723,-7.13 -0.235,4.87 1.793,8.66 3.062,12.6 14.203,44.12 28.321,88.29 42.828,132.31 3.747,11.33 1.329,10.77 -5.562,15.77 -37.559,27.25 -75.117,54.48 -112.598,81.83 -2.922,2.13 -6.968,3.27 -8.23,7.5 3.734,3.3 8.14,1.8 12.152,1.81 45.641,0.11 91.289,0.06 136.938,0.07 11.875,0 11.945,0.02 15.365,10.55 15.57,48.06 31.11,96.14 46.67,144.21 0.77,0 1.54,0 2.3,0"
         style="fill:#cb924c;fill-opacity:1;fill-rule:evenodd;stroke:none"
         id="path12" />
      <path
         d="M 50.3594,1599.49 C 388.063,1096.88 724.516,596.141 1061.16,95.1211 1071.55,106.281 2071.62,1592.28 2074.68,1601.28 1400.5,1600.68 726.695,1600.09 50.3594,1599.49 Z m 1012.6806,35.09 c 301.55,0 603.09,0 904.63,0 33.76,0 67.52,-0.02 101.29,0.03 9.97,0.01 9.97,0.09 10.09,10.05 0.02,1.93 0,3.84 0,5.76 0,162.67 0.02,325.32 -0.03,487.99 -0.02,18.21 2.48,15.72 -15.93,15.72 -535.18,0.04 -1070.36,0.03 -1605.547,0.03 -133.125,0 -266.25,0 -399.3711,0.01 -11.8672,0 -11.2813,0.6 -11.25,-11.26 0,-1.16 0,-2.3 0,-3.46 0,-163.43 -0.0235,-326.86 0.0351,-490.29 0,-16.57 -2.0859,-14.54 14.7852,-14.55 333.7698,-0.04 667.5388,-0.03 1001.2978,-0.03 z M 1060.44,0 c -4.21,6.14063 -8.53,12.3398 -12.74,18.6016 C 862.211,294.531 676.723,570.48 491.234,846.41 329.504,1087.02 167.766,1327.63 5.91797,1568.18 1.91016,1574.15 -0.0117188,1580.03 0,1587.31 c 0.246094,201.43 0.28125,402.84 0.359375,604.26 0,1.91 0.15625,3.85 -0.007812,5.74 -0.3710943,4.46 1.566407,6.32 5.984377,6.03 2.67578,-0.19 5.37886,-0.03 8.06246,-0.03 699.0196,0 1398.0416,0.02 2097.0716,-0.03 16.7,0 14.33,2.33 14.33,-14.8 0.07,-199.88 0,-399.76 0.2,-599.65 0.01,-8.49 -2.25,-15.31 -6.96,-22.29 C 1848.09,1165.09 1577.27,763.512 1306.42,361.961 1226.86,244 1147.3,126.059 1067.71,8.12891 1065.83,5.35156 1064.59,1.92188 1060.44,0"
         style="fill:#1f7cc3;fill-opacity:1;fill-rule:evenodd;stroke:none"
         id="path14" />
      <path
         d="m 1189.99,1888.82 c 0,-46.76 -0.06,-93.55 0.03,-140.33 0.02,-15.24 -1.73,-13.15 13.69,-13.17 44.49,-0.09 88.97,-0.04 133.45,-0.04 3.83,0 7.67,0.23 11.49,-0.05 5.35,-0.37 7.59,1.51 7.39,7.19 -0.4,9.56 -0.02,19.17 -0.14,28.75 -0.12,8.01 -0.24,8.18 -8.43,8.21 -27.22,0.08 -54.43,-0.03 -81.66,0.06 -14.42,0.04 -13.04,-1.7 -13.04,12.73 -0.03,78.59 -0.02,157.19 -0.02,235.79 0,3.07 -0.12,6.15 0,9.2 0.15,3.91 -1.74,5.59 -5.5,5.45 -0.39,0 -0.78,0.03 -1.15,0.03 -16.5,0.01 -32.98,-0.11 -49.46,0.08 -4.93,0.06 -7.08,-1.68 -6.7,-6.67 0.24,-2.66 0.05,-5.36 0.05,-8.03 0,-46.4 0,-92.81 0,-139.2 z m -309.732,-21.89 c 0,39.49 0,78.98 0,118.46 0,2.67 0.078,5.36 0.023,8.04 -0.054,3.32 1.496,4.92 4.824,4.9 2.676,-0.03 5.368,0.03 8.043,0.03 15.336,0.02 30.68,0.12 46,-0.05 4.821,-0.06 6.989,1.59 6.899,6.59 -0.192,10.72 -0.113,21.48 -0.055,32.2 0.02,3.83 -1.715,5.62 -5.523,5.55 -2.688,-0.04 -5.375,0 -8.063,0 -43.304,0.01 -86.625,0 -129.941,0 -13.793,0 -27.594,0.08 -41.395,-0.01 -9.027,-0.07 -9.129,-0.17 -9.246,-8.7 -0.125,-8.81 -0.125,-17.64 -0.008,-26.44 0.118,-8.91 0.204,-9.04 8.832,-9.11 14.567,-0.11 29.133,0 43.704,-0.04 14.625,-0.04 13.07,1.31 13.082,-12.78 0.046,-78.57 0.023,-157.16 0.023,-235.73 0,-2.68 0.215,-5.4 -0.047,-8.05 -0.484,-5.06 1.723,-6.66 6.633,-6.59 14.566,0.24 29.133,0.03 43.687,0.11 13.969,0.06 12.497,-1.44 12.504,12.04 0.059,39.86 0.024,79.73 0.024,119.58 z M 109.426,1889 c 0,-47.54 -0.028,-95.09 0.008,-142.63 0,-11.05 0.07,-11.07 11.347,-11.1 14.184,-0.03 28.364,-0.07 42.559,0.01 9.172,0.06 9.297,0.16 9.305,9.66 0.058,33.74 -0.079,67.48 0.058,101.22 0.078,18.77 -2.348,15.76 15.578,15.93 19.164,0.17 38.352,0.23 57.508,-0.07 6.129,-0.11 8.016,2.14 7.734,8 -0.398,8.02 -0.085,16.1 -0.105,24.15 -0.059,12.45 1.371,12.05 -11.539,12.04 -20.324,-0.03 -40.641,-0.07 -60.973,0.02 -7.996,0.05 -8.172,0.2 -8.203,8.4 -0.09,25.3 0.102,50.6 -0.125,75.91 -0.058,5.82 1.559,8.08 7.735,7.93 16.093,-0.38 32.203,-0.13 48.304,-0.12 13.418,0 26.844,0.16 40.25,-0.08 5.024,-0.09 6.817,1.84 6.746,6.69 -0.168,10.73 -0.109,21.47 -0.031,32.2 0.02,3.7 -1.246,5.84 -5.293,5.66 -2.305,-0.1 -4.605,0.03 -6.906,0.03 -47.156,0 -94.317,0 -141.485,0 -2.293,0 -4.597,-0.08 -6.898,-0.03 -3.754,0.08 -5.727,-1.5 -5.574,-5.43 0.101,-2.69 0,-5.37 0,-8.06 0,-46.78 0,-93.54 0,-140.33 z m 1597.784,107.99 c -2.29,-4.56 -4.06,-8.32 -6.03,-11.97 -32.22,-59.66 -63.8,-119.7 -97.11,-178.76 -11,-19.5 -17.09,-38.83 -14.67,-60.91 0.04,-0.37 0,-0.77 0.01,-1.14 0.19,-8.72 0.19,-8.89 8.9,-8.9 55.22,-0.06 110.42,-0.04 165.64,-0.03 1.15,0 2.3,0.11 3.44,0 4.5,-0.39 6.01,1.74 5.92,6.07 -0.18,9.59 0.03,19.18 -0.06,28.77 -0.07,9.15 -0.13,9.26 -9.58,9.27 -32.97,0.06 -65.95,0.02 -98.91,0.06 -2.86,0 -5.89,-0.55 -9.34,1.2 2.38,4.65 4.39,8.7 6.54,12.68 35.3,65.4 70.64,130.79 105.88,196.22 2.33,4.29 5.51,8.31 5.46,13.69 -0.12,11.11 -0.17,22.22 0.01,33.35 0.08,4.44 -1.65,6.33 -6.04,6.08 -2.69,-0.14 -5.38,-0.01 -8.06,-0.01 -49.84,0 -99.68,0 -149.51,0 -2.71,0 -5.38,-0.15 -8.07,0.01 -4.35,0.28 -6.17,-1.49 -6.08,-5.98 0.19,-9.58 -0.02,-19.17 0.06,-28.75 0.06,-9.42 0.12,-9.55 9.35,-9.55 29.91,-0.07 59.82,0 89.73,-0.07 3.74,-0.01 7.58,0.78 12.52,-1.33 z m -320.86,-107.7 c 0,-46.78 0,-93.58 0,-140.38 0,-2.67 0.13,-5.38 -0.01,-8.05 -0.2,-3.77 1.14,-5.8 5.22,-5.58 2.69,0.17 5.38,0 8.06,0 47.19,0 94.35,0 141.53,0 3.46,0 6.93,0.21 10.36,-0.02 4.65,-0.3 5.88,1.99 5.8,6.2 -0.15,10.75 -0.17,21.49 0,32.23 0.09,4.64 -2.09,6.01 -6.29,5.74 -2.66,-0.17 -5.37,-0.01 -8.05,-0.01 -28.39,0 -56.76,-0.06 -85.15,0.02 -8.67,0.02 -8.8,0.19 -8.84,8.95 -0.08,18 -0.02,36.04 -0.02,54.07 0,6.9 0.15,13.81 -0.04,20.71 -0.13,4.51 1.86,6.23 6.19,5.95 2.29,-0.15 4.6,-0.01 6.89,-0.01 21.49,0 42.96,-0.07 64.44,0.02 8.66,0.04 8.75,0.19 8.86,9.03 0.12,8.05 0.07,16.11 0.03,24.16 -0.06,10.75 -0.09,10.81 -10.48,10.83 -22.62,0.05 -45.25,0.06 -67.88,-0.02 -4.61,-0.01 -8.18,0.09 -8.1,6.46 0.23,24.15 0.19,48.32 0.02,72.48 -0.04,5.3 2.43,6.48 7.01,6.34 6.13,-0.21 12.28,-0.05 18.41,-0.05 24.94,0.02 49.87,-0.02 74.79,0.03 3.64,0.02 8.18,-1.17 8.16,5.04 -0.05,11.51 -0.04,23.01 0,34.52 0,3.44 -1.77,4.75 -5.02,4.66 -2.28,-0.04 -4.59,0.04 -6.9,0.04 -49.1,0 -98.19,0 -147.28,0 -2.31,0 -4.6,-0.1 -6.92,-0.04 -3.37,0.06 -4.84,-1.57 -4.77,-4.88 0.07,-2.68 -0.02,-5.37 -0.02,-8.05 0,-46.79 0,-93.59 0,-140.39 z m -229.95,-152.9 c 0.44,4 -0.62,7.68 -1.4,11.44 -10.42,50.28 -20.78,100.58 -31.18,150.87 -9.25,44.66 -18.5,89.32 -27.76,133.97 -2.07,9.92 -2.12,9.97 -12.78,9.98 -23.78,0.03 -47.56,0.05 -71.36,0 -10.03,-0.02 -10.07,-0.08 -12.025,-9.49 -19.172,-92.29 -38.387,-184.6 -57.395,-276.95 -1.352,-6.55 -4.125,-13.06 -2.645,-20.93 16.958,0 33.797,0.13 50.618,-0.08 5.234,-0.05 6.211,2.86 6.961,7.08 2.507,13.96 5.446,27.84 7.936,41.8 0.88,4.93 2.79,7.02 8.25,6.93 20.7,-0.34 41.44,-0.3 62.15,-0.01 5.66,0.07 8.2,-1.58 9.12,-7.39 1.97,-12.49 4.65,-24.86 6.99,-37.28 2.09,-10.98 2.08,-11.01 12.87,-11.05 12.65,-0.03 25.32,-0.1 37.98,0.05 4.52,0.05 9.18,-0.95 13.67,1.06 z m 858.71,-1.08 c 0.5,4.84 -0.41,8.51 -1.19,12.24 -15.1,72.71 -30.19,145.43 -45.27,218.17 -4.67,22.51 -9.27,45.01 -13.96,67.5 -1.91,9.17 -1.98,9.37 -9.75,9.39 -25.69,0.11 -51.37,-0.07 -77.05,0.16 -5.12,0.03 -8.02,-1.47 -8.68,-6.66 -0.25,-1.9 -0.65,-3.77 -1.05,-5.65 -19.55,-94.08 -39.13,-188.18 -58.69,-282.27 -0.83,-3.99 -1.88,-7.97 -1.16,-12.92 16.61,0 32.66,0.29 48.7,-0.14 6.48,-0.16 8.43,2.38 9.39,8.37 2.16,13.62 5.31,27.06 7.68,40.64 0.89,5.04 2.91,6.95 8.28,6.86 20.69,-0.31 41.4,-0.37 62.09,0.02 6.59,0.13 8.4,-2.62 9.35,-8.49 2.18,-13.61 5.04,-27.11 7.71,-40.64 0.66,-3.34 1.13,-6.71 6.11,-6.66 19.08,0.18 38.18,0.08 57.49,0.08 z M 494.094,1888.67 c -0.149,0 -0.305,0 -0.461,0 0,29.5 0.871,59.06 -0.242,88.53 -1.121,29.25 -16.473,50 -43.86,60.26 -33.5,12.58 -67.679,12.61 -101.168,-0.01 -27.867,-10.51 -42.386,-31.79 -44.066,-61.46 -0.66,-11.47 -0.352,-22.99 -0.344,-34.48 0.035,-46.01 -0.359,-92.01 0.36,-138.01 0.484,-31.31 17.335,-53.44 46.687,-64.39 11.613,-4.35 23.711,-6.35 35.953,-7.14 22.781,-1.47 45.188,0.36 66.371,9.88 21.496,9.64 34.625,26.17 39.102,49.17 1.441,7.46 1.539,15.27 1.597,22.9 0.196,24.92 0.071,49.84 0.071,74.75 z m 193.187,-2.95 c 0.121,0.31 0.145,0.76 0.371,0.89 1.301,0.77 2.629,1.55 3.996,2.21 19.297,9.1 30.356,24.35 32.676,45.41 1.926,17.54 2.078,35.21 -0.187,52.76 -3.375,26.16 -19.032,41.92 -43.469,49.61 -11.367,3.58 -23.113,5.54 -35.086,5.58 -32.988,0.19 -65.965,0.39 -98.957,0.46 -8.93,0.01 -8.93,-0.18 -9.16,-8.8 -0.043,-1.91 0,-3.84 0,-5.76 0,-92.83 0,-185.67 0,-278.5 0,-2.31 0.191,-4.62 -0.031,-6.9 -0.536,-5.3 1.312,-7.59 7.023,-7.5 16.5,0.28 32.992,0.29 49.484,-0.01 5.84,-0.1 7.372,2.42 6.938,7.61 -0.242,3.05 -0.027,6.13 -0.027,9.2 0,33.38 0.086,66.76 -0.082,100.13 -0.04,5.58 1.109,8.54 7.57,8.06 7.246,-0.54 14.586,0.12 21.851,-0.29 19.555,-1.15 29.356,-10.11 32.235,-29.34 0.633,-4.13 0.679,-8.38 0.719,-12.6 0.125,-18.79 0.109,-37.59 0.234,-56.39 0.039,-5.74 0.387,-11.46 2.012,-17.07 2.593,-9 2.5,-9.14 11.527,-9.18 15.723,-0.1 31.457,-0.07 47.18,0.03 2.406,0.01 5.261,-1.06 7.496,1.95 -5.106,11.78 -5.813,24.32 -5.715,37.04 0.156,18.43 0.5,36.86 -0.332,55.24 -1.109,24.43 -11.16,43.59 -35.035,53.36 -1.371,0.57 -3.039,0.85 -3.231,2.8 z m 375.759,-251.14 c -333.759,0 -667.528,-0.01 -1001.2978,0.03 -16.8711,0.01 -14.7852,-2.02 -14.7852,14.55 -0.0586,163.43 -0.0351,326.86 -0.0351,490.29 0,1.16 0,2.3 0,3.46 -0.0313,11.86 -0.6172,11.26 11.25,11.26 133.1211,-0.01 266.2461,-0.01 399.3711,-0.01 535.187,0 1070.367,0.01 1605.547,-0.03 18.41,0 15.91,2.49 15.93,-15.72 0.05,-162.67 0.03,-325.32 0.03,-487.99 0,-1.92 0.02,-3.83 0,-5.76 -0.12,-9.96 -0.12,-10.04 -10.09,-10.05 -33.77,-0.05 -67.53,-0.03 -101.29,-0.03 -301.54,0 -603.08,0 -904.63,0"
         style="fill:#fcfdfd;fill-opacity:1;fill-rule:evenodd;stroke:none"
         id="path16" />
      <path
         d="m 1101.11,266.121 c 2.5,-0.68 3.23,0.258 3.84,1.141 284.99,422.789 569.95,845.578 854.89,1268.388 0.13,0.18 -0.16,0.69 -0.31,1.04 -0.15,0.32 -0.36,0.62 -0.8,1.42 -3.94,0 -8.13,0.01 -12.35,0 -52.16,-0.06 -104.33,-0.16 -156.49,-0.17 -225.16,-0.08 -450.34,-0.13 -675.5,-0.23 -15.37,0 -13.25,1.84 -13.25,-13.59 -0.04,-415.8 -0.03,-831.62 -0.03,-1247.421 0,-3.66 0,-7.34 0,-10.578 z M 163.84,1537.84 c 287.015,-425.59 572.769,-849.32 858.53,-1273.051 0.83,0.293 1.66,0.582 2.49,0.859 0,3.262 0,6.571 0,9.864 0,416.57 0,833.148 -0.01,1249.728 0,13.51 1.18,12.21 -12.49,12.23 -82.083,0.1 -164.172,0.17 -246.251,0.2 -196.402,0.07 -392.796,0.11 -589.199,0.17 -3.652,0 -7.324,0 -13.07,0 z m -113.4806,61.65 c 676.3356,0.6 1350.1406,1.19 2024.3206,1.79 C 2071.62,1592.28 1071.55,106.281 1061.16,95.1211 724.516,596.141 388.063,1096.88 50.3594,1599.49"
         style="fill:#fdfdfd;fill-opacity:1;fill-rule:evenodd;stroke:none"
         id="path18" />
      <path
         d="m 600.859,1951.84 c 0,-13.77 0.047,-27.55 -0.035,-41.32 -0.023,-4.09 1.106,-6.47 5.809,-6.36 10.695,0.23 21.418,-0.53 32.035,1.63 14.477,2.92 22.316,10.88 23.125,25.73 0.75,13.73 0.785,27.56 0,41.28 -0.941,16.55 -9.781,24.61 -26.617,25.36 -9.168,0.39 -18.379,-0.18 -27.535,0.3 -6.036,0.31 -6.938,-2.57 -6.86,-7.58 0.203,-13.01 0.071,-26.02 0.078,-39.04 z m 86.422,-66.12 c 0.192,-1.95 1.86,-2.23 3.231,-2.8 23.875,-9.77 33.926,-28.93 35.035,-53.36 0.832,-18.38 0.488,-36.81 0.332,-55.24 -0.098,-12.72 0.609,-25.26 5.715,-37.04 -2.235,-3.01 -5.09,-1.94 -7.496,-1.95 -15.723,-0.1 -31.457,-0.13 -47.18,-0.03 -9.027,0.04 -8.934,0.18 -11.527,9.18 -1.625,5.61 -1.973,11.33 -2.012,17.07 -0.125,18.8 -0.109,37.6 -0.234,56.39 -0.04,4.22 -0.086,8.47 -0.719,12.6 -2.879,19.23 -12.68,28.19 -32.235,29.34 -7.265,0.41 -14.605,-0.25 -21.851,0.29 -6.461,0.48 -7.61,-2.48 -7.57,-8.06 0.168,-33.37 0.082,-66.75 0.082,-100.13 0,-3.07 -0.215,-6.15 0.027,-9.2 0.434,-5.19 -1.098,-7.71 -6.938,-7.61 -16.492,0.3 -32.984,0.29 -49.484,0.01 -5.711,-0.09 -7.559,2.2 -7.023,7.5 0.222,2.28 0.031,4.59 0.031,6.9 0,92.83 0,185.67 0,278.5 0,1.92 -0.043,3.85 0,5.76 0.23,8.62 0.23,8.81 9.16,8.8 32.992,-0.07 65.969,-0.27 98.957,-0.46 11.973,-0.04 23.719,-2 35.086,-5.58 24.437,-7.69 40.094,-23.45 43.469,-49.61 2.265,-17.55 2.113,-35.22 0.187,-52.76 -2.32,-21.06 -13.379,-36.31 -32.676,-45.41 -1.367,-0.66 -2.695,-1.44 -3.996,-2.21 -0.226,-0.13 -0.25,-0.58 -0.371,-0.89"
         style="fill:#207dc3;fill-opacity:1;fill-rule:evenodd;stroke:none"
         id="path20" />
      <path
         d="m 431.324,1888.49 c -0.015,0 -0.015,0 -0.023,0 0,27.57 0.203,55.16 -0.071,82.74 -0.195,20.52 -9.812,30.09 -30.355,30.82 -3.785,0.13 -7.668,-0.3 -11.395,-1.02 -14.484,-2.75 -21.824,-11.25 -22.699,-26.05 -0.156,-2.68 -0.043,-5.36 -0.043,-8.06 0,-52.09 -0.008,-104.18 0.016,-156.28 0,-3.45 -0.195,-6.93 0.223,-10.33 1.609,-13.41 9.363,-21.24 22.75,-23.64 6.507,-1.16 12.925,-1.08 19.39,0.15 12.762,2.42 20.293,10.29 21.785,23.2 0.477,4.17 0.399,8.41 0.399,12.62 0.031,25.29 0.023,50.57 0.023,75.85 z m 62.77,0.18 c 0,-24.91 0.125,-49.83 -0.071,-74.75 -0.058,-7.63 -0.156,-15.44 -1.597,-22.9 -4.477,-23 -17.606,-39.53 -39.102,-49.17 -21.183,-9.52 -43.59,-11.35 -66.371,-9.88 -12.242,0.79 -24.34,2.79 -35.953,7.14 -29.352,10.95 -46.203,33.08 -46.687,64.39 -0.719,46 -0.325,92 -0.36,138.01 -0.008,11.49 -0.316,23.01 0.344,34.48 1.68,29.67 16.199,50.95 44.066,61.46 33.489,12.62 67.668,12.59 101.168,0.01 27.387,-10.26 42.739,-31.01 43.86,-60.26 1.113,-29.47 0.242,-59.03 0.242,-88.53 0.156,0 0.312,0 0.461,0"
         style="fill:#1f7cc3;fill-opacity:1;fill-rule:evenodd;stroke:none"
         id="path22" />
      <path
         d="m 1902.91,1986.83 c -6.5,-33.81 -12.72,-66.1 -18.94,-98.38 -3.03,-15.79 -6.13,-31.55 -9.02,-47.36 -1.41,-7.62 -0.93,-8.21 6.25,-8.29 14.94,-0.15 29.88,0.16 44.83,-0.14 6.13,-0.12 7.25,2.61 6.01,7.75 -0.36,1.48 -0.5,3.02 -0.78,4.52 -6.77,35.71 -13.4,71.45 -20.44,107.1 -2.22,11.12 -3.09,22.61 -7.91,34.8 z m 112.2,-251.52 c -19.31,0 -38.41,0.1 -57.49,-0.08 -4.98,-0.05 -5.45,3.32 -6.11,6.66 -2.67,13.53 -5.53,27.03 -7.71,40.64 -0.95,5.87 -2.76,8.62 -9.35,8.49 -20.69,-0.39 -41.4,-0.33 -62.09,-0.02 -5.37,0.09 -7.39,-1.82 -8.28,-6.86 -2.37,-13.58 -5.52,-27.02 -7.68,-40.64 -0.96,-5.99 -2.91,-8.53 -9.39,-8.37 -16.04,0.43 -32.09,0.14 -48.7,0.14 -0.72,4.95 0.33,8.93 1.16,12.92 19.56,94.09 39.14,188.19 58.69,282.27 0.4,1.88 0.8,3.75 1.05,5.65 0.66,5.19 3.56,6.69 8.68,6.66 25.68,-0.23 51.36,-0.05 77.05,-0.16 7.77,-0.02 7.84,-0.22 9.75,-9.39 4.69,-22.49 9.29,-44.99 13.96,-67.5 15.08,-72.74 30.17,-145.46 45.27,-218.17 0.78,-3.73 1.69,-7.4 1.19,-12.24"
         style="fill:#1f7cc3;fill-opacity:1;fill-rule:evenodd;stroke:none"
         id="path24" />
      <path
         d="m 1014.78,1832.75 c 17.58,0 33.61,-0.05 49.63,0.02 10.19,0.05 10.24,0.17 8.44,10.46 -0.25,1.51 -0.71,2.98 -1,4.49 -7.97,42.12 -15.93,84.25 -23.94,126.37 -0.71,3.73 -1.74,7.39 -2.61,11.08 -0.56,-0.08 -1.12,-0.16 -1.68,-0.24 -9.52,-50.27 -19.05,-100.55 -28.84,-152.18 z m 141.62,-96.36 c -4.49,-2.01 -9.15,-1.01 -13.67,-1.06 -12.66,-0.15 -25.33,-0.08 -37.98,-0.05 -10.79,0.04 -10.78,0.07 -12.87,11.05 -2.34,12.42 -5.02,24.79 -6.99,37.28 -0.92,5.81 -3.46,7.46 -9.12,7.39 -20.71,-0.29 -41.45,-0.33 -62.15,0.01 -5.46,0.09 -7.37,-2 -8.25,-6.93 -2.49,-13.96 -5.429,-27.84 -7.936,-41.8 -0.75,-4.22 -1.727,-7.13 -6.961,-7.08 -16.821,0.21 -33.66,0.08 -50.618,0.08 -1.48,7.87 1.293,14.38 2.645,20.93 19.008,92.35 38.223,184.66 57.395,276.95 1.955,9.41 1.995,9.47 12.025,9.49 23.8,0.05 47.58,0.03 71.36,0 10.66,-0.01 10.71,-0.06 12.78,-9.98 9.26,-44.65 18.51,-89.31 27.76,-133.97 10.4,-50.29 20.76,-100.59 31.18,-150.87 0.78,-3.76 1.84,-7.44 1.4,-11.44"
         style="fill:#1f7cc3;fill-opacity:1;fill-rule:evenodd;stroke:none"
         id="path26" />
      <path
         d="m 1386.35,1889.29 c 0,46.8 0,93.6 0,140.39 0,2.68 0.09,5.37 0.02,8.05 -0.07,3.31 1.4,4.94 4.77,4.88 2.32,-0.06 4.61,0.04 6.92,0.04 49.09,0 98.18,0 147.28,0 2.31,0 4.62,-0.08 6.9,-0.04 3.25,0.09 5.02,-1.22 5.02,-4.66 -0.04,-11.51 -0.05,-23.01 0,-34.52 0.02,-6.21 -4.52,-5.02 -8.16,-5.04 -24.92,-0.05 -49.85,-0.01 -74.79,-0.03 -6.13,0 -12.28,-0.16 -18.41,0.05 -4.58,0.14 -7.05,-1.04 -7.01,-6.34 0.17,-24.16 0.21,-48.33 -0.02,-72.48 -0.08,-6.37 3.49,-6.47 8.1,-6.46 22.63,0.08 45.26,0.07 67.88,0.02 10.39,-0.02 10.42,-0.08 10.48,-10.83 0.04,-8.05 0.09,-16.11 -0.03,-24.16 -0.11,-8.84 -0.2,-8.99 -8.86,-9.03 -21.48,-0.09 -42.95,-0.02 -64.44,-0.02 -2.29,0 -4.6,-0.14 -6.89,0.01 -4.33,0.28 -6.32,-1.44 -6.19,-5.95 0.19,-6.9 0.04,-13.81 0.04,-20.71 0,-18.03 -0.06,-36.07 0.02,-54.07 0.04,-8.76 0.17,-8.93 8.84,-8.95 28.39,-0.08 56.76,-0.02 85.15,-0.02 2.68,0 5.39,-0.16 8.05,0.01 4.2,0.27 6.38,-1.1 6.29,-5.74 -0.17,-10.74 -0.15,-21.48 0,-32.23 0.08,-4.21 -1.15,-6.5 -5.8,-6.2 -3.43,0.23 -6.9,0.02 -10.36,0.02 -47.18,0 -94.34,0 -141.53,0 -2.68,0 -5.37,0.17 -8.06,0 -4.08,-0.22 -5.42,1.81 -5.22,5.58 0.14,2.67 0.01,5.38 0.01,8.05 0,46.8 0,93.6 0,140.38"
         style="fill:#207cc3;fill-opacity:1;fill-rule:evenodd;stroke:none"
         id="path28" />
      <path
         d="m 1707.21,1996.99 c -4.94,2.11 -8.78,1.32 -12.52,1.33 -29.91,0.07 -59.82,0 -89.73,0.07 -9.23,0 -9.29,0.13 -9.35,9.55 -0.08,9.58 0.13,19.17 -0.06,28.75 -0.09,4.49 1.73,6.26 6.08,5.98 2.69,-0.16 5.36,-0.01 8.07,-0.01 49.83,0 99.67,0 149.51,0 2.68,0 5.37,-0.13 8.06,0.01 4.39,0.25 6.12,-1.64 6.04,-6.08 -0.18,-11.13 -0.13,-22.24 -0.01,-33.35 0.05,-5.38 -3.13,-9.4 -5.46,-13.69 -35.24,-65.43 -70.58,-130.82 -105.88,-196.22 -2.15,-3.98 -4.16,-8.03 -6.54,-12.68 3.45,-1.75 6.48,-1.2 9.34,-1.2 32.96,-0.04 65.94,0 98.91,-0.06 9.45,-0.01 9.51,-0.12 9.58,-9.27 0.09,-9.59 -0.12,-19.18 0.06,-28.77 0.09,-4.33 -1.42,-6.46 -5.92,-6.07 -1.14,0.11 -2.29,0 -3.44,0 -55.22,-0.01 -110.42,-0.03 -165.64,0.03 -8.71,0.01 -8.71,0.18 -8.9,8.9 -0.01,0.37 0.03,0.77 -0.01,1.14 -2.42,22.08 3.67,41.41 14.67,60.91 33.31,59.06 64.89,119.1 97.11,178.76 1.97,3.65 3.74,7.41 6.03,11.97"
         style="fill:#1f7cc3;fill-opacity:1;fill-rule:evenodd;stroke:none"
         id="path30" />
      <path
         d="m 109.426,1889 c 0,46.79 0,93.55 0,140.33 0,2.69 0.101,5.37 0,8.06 -0.153,3.93 1.82,5.51 5.574,5.43 2.301,-0.05 4.605,0.03 6.898,0.03 47.168,0 94.329,0 141.485,0 2.301,0 4.601,-0.13 6.906,-0.03 4.047,0.18 5.313,-1.96 5.293,-5.66 -0.078,-10.73 -0.137,-21.47 0.031,-32.2 0.071,-4.85 -1.722,-6.78 -6.746,-6.69 -13.406,0.24 -26.832,0.08 -40.25,0.08 -16.101,-0.01 -32.211,-0.26 -48.304,0.12 -6.176,0.15 -7.793,-2.11 -7.735,-7.93 0.227,-25.31 0.035,-50.61 0.125,-75.91 0.031,-8.2 0.207,-8.35 8.203,-8.4 20.332,-0.09 40.649,-0.05 60.973,-0.02 12.91,0.01 11.48,0.41 11.539,-12.04 0.02,-8.05 -0.293,-16.13 0.105,-24.15 0.282,-5.86 -1.605,-8.11 -7.734,-8 -19.156,0.3 -38.344,0.24 -57.508,0.07 -17.926,-0.17 -15.5,2.84 -15.578,-15.93 -0.137,-33.74 0,-67.48 -0.058,-101.22 -0.008,-9.5 -0.133,-9.6 -9.305,-9.66 -14.195,-0.08 -28.375,-0.04 -42.559,-0.01 -11.277,0.03 -11.347,0.05 -11.347,11.1 -0.036,47.54 -0.008,95.09 -0.008,142.63"
         style="fill:#1f7dc4;fill-opacity:1;fill-rule:evenodd;stroke:none"
         id="path32" />
      <path
         d="m 880.258,1866.93 c 0,-39.85 0.035,-79.72 -0.024,-119.58 -0.007,-13.48 1.465,-11.98 -12.504,-12.04 -14.554,-0.08 -29.121,0.13 -43.687,-0.11 -4.91,-0.07 -7.117,1.53 -6.633,6.59 0.262,2.65 0.047,5.37 0.047,8.05 0,78.57 0.023,157.16 -0.023,235.73 -0.012,14.09 1.543,12.74 -13.082,12.78 -14.571,0.04 -29.137,-0.07 -43.704,0.04 -8.628,0.07 -8.714,0.2 -8.832,9.11 -0.117,8.8 -0.117,17.63 0.008,26.44 0.117,8.53 0.219,8.63 9.246,8.7 13.801,0.09 27.602,0.01 41.395,0.01 43.316,0 86.637,0.01 129.941,0 2.688,0 5.375,-0.04 8.063,0 3.808,0.07 5.543,-1.72 5.523,-5.55 -0.058,-10.72 -0.137,-21.48 0.055,-32.2 0.09,-5 -2.078,-6.65 -6.899,-6.59 -15.32,0.17 -30.664,0.07 -46,0.05 -2.675,0 -5.367,-0.06 -8.043,-0.03 -3.328,0.02 -4.878,-1.58 -4.824,-4.9 0.055,-2.68 -0.023,-5.37 -0.023,-8.04 0,-39.48 0,-78.97 0,-118.46"
         style="fill:#1f7cc3;fill-opacity:1;fill-rule:evenodd;stroke:none"
         id="path34" />
      <path
         d="m 1189.99,1888.82 c 0,46.39 0,92.8 0,139.2 0,2.67 0.19,5.37 -0.05,8.03 -0.38,4.99 1.77,6.73 6.7,6.67 16.48,-0.19 32.96,-0.07 49.46,-0.08 0.37,0 0.76,-0.03 1.15,-0.03 3.76,0.14 5.65,-1.54 5.5,-5.45 -0.12,-3.05 0,-6.13 0,-9.2 0,-78.6 -0.01,-157.2 0.02,-235.79 0,-14.43 -1.38,-12.69 13.04,-12.73 27.23,-0.09 54.44,0.02 81.66,-0.06 8.19,-0.03 8.31,-0.2 8.43,-8.21 0.12,-9.58 -0.26,-19.19 0.14,-28.75 0.2,-5.68 -2.04,-7.56 -7.39,-7.19 -3.82,0.28 -7.66,0.05 -11.49,0.05 -44.48,0 -88.96,-0.05 -133.45,0.04 -15.42,0.02 -13.67,-2.07 -13.69,13.17 -0.09,46.78 -0.03,93.57 -0.03,140.33"
         style="fill:#207cc3;fill-opacity:1;fill-rule:evenodd;stroke:none"
         id="path36" />
      <path
         d="m 163.84,1537.84 c 5.746,0 9.418,0 13.07,0 196.403,-0.06 392.797,-0.1 589.199,-0.17 82.079,-0.03 164.168,-0.1 246.251,-0.2 13.67,-0.02 12.49,1.28 12.49,-12.23 0.01,-416.58 0.01,-833.158 0.01,-1249.728 0,-3.293 0,-6.602 0,-9.864 -0.83,-0.277 -1.66,-0.566 -2.49,-0.859 C 736.609,688.52 450.855,1112.25 163.84,1537.84"
         style="fill:#1f7bc3;fill-opacity:1;fill-rule:evenodd;stroke:none"
         id="path38" />
      <path
         d="m 1101.11,266.121 c 0,3.238 0,6.918 0,10.578 0,415.801 -0.01,831.621 0.03,1247.421 0,15.43 -2.12,13.59 13.25,13.59 225.16,0.1 450.34,0.15 675.5,0.23 52.16,0.01 104.33,0.11 156.49,0.17 4.22,0.01 8.41,0 12.35,0 0.44,-0.8 0.65,-1.1 0.8,-1.42 0.15,-0.35 0.44,-0.86 0.31,-1.04 -284.94,-422.81 -569.9,-845.599 -854.89,-1268.388 -0.61,-0.883 -1.34,-1.821 -3.84,-1.141"
         style="fill:#e53e29;fill-opacity:1;fill-rule:evenodd;stroke:none"
         id="path40" />
      <path
         d="m 600.852,1951.84 c 0,13.02 0.132,26.03 -0.071,39.04 -0.078,5.01 0.824,7.89 6.86,7.58 9.156,-0.48 18.367,0.09 27.535,-0.3 16.836,-0.75 25.676,-8.81 26.617,-25.36 0.785,-13.72 0.75,-27.55 0,-41.28 -0.809,-14.85 -8.648,-22.81 -23.125,-25.73 -10.617,-2.16 -21.34,-1.4 -32.035,-1.63 -4.703,-0.11 -5.832,2.27 -5.809,6.36 0.082,13.77 0.035,27.55 0.028,41.32"
         style="fill:#fcfdfd;fill-opacity:1;fill-rule:evenodd;stroke:none"
         id="path42" />
      <path
         d="m 431.324,1888.49 c 0,-25.28 0.008,-50.56 -0.023,-75.85 0,-4.21 0.078,-8.45 -0.399,-12.62 -1.492,-12.91 -9.023,-20.78 -21.785,-23.2 -6.465,-1.23 -12.883,-1.31 -19.39,-0.15 -13.387,2.4 -21.141,10.23 -22.75,23.64 -0.418,3.4 -0.223,6.88 -0.223,10.33 -0.024,52.1 -0.016,104.19 -0.016,156.28 0,2.7 -0.113,5.38 0.043,8.06 0.875,14.8 8.215,23.3 22.699,26.05 3.727,0.72 7.61,1.15 11.395,1.02 20.543,-0.73 30.16,-10.3 30.355,-30.82 0.274,-27.58 0.071,-55.17 0.071,-82.74 0.008,0 0.008,0 0.023,0"
         style="fill:#fcfdfd;fill-opacity:1;fill-rule:evenodd;stroke:none"
         id="path44" />
      <path
         d="m 1902.91,1986.83 c 4.82,-12.19 5.69,-23.68 7.91,-34.8 7.04,-35.65 13.67,-71.39 20.44,-107.1 0.28,-1.5 0.42,-3.04 0.78,-4.52 1.24,-5.14 0.12,-7.87 -6.01,-7.75 -14.95,0.3 -29.89,-0.01 -44.83,0.14 -7.18,0.08 -7.66,0.67 -6.25,8.29 2.89,15.81 5.99,31.57 9.02,47.36 6.22,32.28 12.44,64.57 18.94,98.38"
         style="fill:#f8f9fa;fill-opacity:1;fill-rule:evenodd;stroke:none"
         id="path46" />
      <path
         d="m 1014.78,1832.75 c 9.79,51.63 19.32,101.91 28.84,152.18 0.56,0.08 1.12,0.16 1.68,0.24 0.87,-3.69 1.9,-7.35 2.61,-11.08 8.01,-42.12 15.97,-84.25 23.94,-126.37 0.29,-1.51 0.75,-2.98 1,-4.49 1.8,-10.29 1.75,-10.41 -8.44,-10.46 -16.02,-0.07 -32.05,-0.02 -49.63,-0.02"
         style="fill:#f8f9fa;fill-opacity:1;fill-rule:evenodd;stroke:none"
         id="path48" />
    </g>
  </g>
</svg>
